mtllib tetrahedron.mtl
v -0.5 -0.7071 -0.866025
v -0.5 -0.7071 0.866025
v 1 -0.7071 0
v 0 0.7071 0
# 4 vertices

vn 0 -1 0
vn 0 -1 0
vn -0 -1 -0
vn -0.942808 0.333336 0
vn -0.942808 0.333336 0
vn -0.942808 0.333336 0
vn 0.471404 0.333336 0.816496
vn 0.471404 0.333336 0.816496
vn 0.471404 0.333336 0.816496
vn 0.471404 0.333336 -0.816496
vn 0.471404 0.333336 -0.816496
vn 0.471404 0.333336 -0.816496
vt 0.25 -0.933013
vt 1 -0.5
vt 0.25 -0.066987
vt 0 0
vt 0.333333 0
vt 0.5 1
vt 0.333333 0
vt 0.666667 0
vt 0.5 1
vt 0.666667 0
vt 1 0
vt 0.5 1
usemtl default
f 1/1/1 3/2/2 2/3/3
f 1/4/4 2/5/5 4/6/6
f 2/7/7 3/8/8 4/9/9
f 3/10/10 1/11/11 4/12/12
# 4 faces

